<mxfile host="app.diagrams.net" agent="Mozilla/5.0 (Windows NT 10.0; Win64; x64) AppleWebKit/537.36 (KHTML, like Gecko) Chrome/128.0.0.0 Safari/537.36 OPR/114.0.0.0" version="25.0.1">
  <diagram name="Page-1" id="J6qU1CufO3tT0paZhnID">
    <mxGraphModel dx="1188" dy="743" grid="0" gridSize="10" guides="1" tooltips="1" connect="1" arrows="1" fold="1" page="0" pageScale="1" pageWidth="827" pageHeight="1169" math="0" shadow="0">
      <root>
        <mxCell id="0" />
        <mxCell id="1" parent="0" />
        <mxCell id="n1ISIKl0yZO8UXlDY4mg-215" value="" style="edgeStyle=orthogonalEdgeStyle;rounded=0;orthogonalLoop=1;jettySize=auto;html=1;" edge="1" parent="1" source="n1ISIKl0yZO8UXlDY4mg-1" target="n1ISIKl0yZO8UXlDY4mg-214">
          <mxGeometry relative="1" as="geometry" />
        </mxCell>
        <mxCell id="n1ISIKl0yZO8UXlDY4mg-1" value="Start" style="ellipse;whiteSpace=wrap;html=1;" vertex="1" parent="1">
          <mxGeometry x="-40" y="9" width="100" height="60" as="geometry" />
        </mxCell>
        <mxCell id="n1ISIKl0yZO8UXlDY4mg-173" value="" style="edgeStyle=orthogonalEdgeStyle;rounded=0;orthogonalLoop=1;jettySize=auto;html=1;" edge="1" parent="1" source="n1ISIKl0yZO8UXlDY4mg-123" target="n1ISIKl0yZO8UXlDY4mg-172">
          <mxGeometry relative="1" as="geometry" />
        </mxCell>
        <mxCell id="n1ISIKl0yZO8UXlDY4mg-123" value="i = a" style="rounded=0;whiteSpace=wrap;html=1;" vertex="1" parent="1">
          <mxGeometry x="-67.99" y="197" width="156" height="57" as="geometry" />
        </mxCell>
        <mxCell id="n1ISIKl0yZO8UXlDY4mg-284" style="edgeStyle=orthogonalEdgeStyle;rounded=0;orthogonalLoop=1;jettySize=auto;html=1;exitX=0;exitY=0.5;exitDx=0;exitDy=0;entryX=0;entryY=0.5;entryDx=0;entryDy=0;" edge="1" parent="1" source="n1ISIKl0yZO8UXlDY4mg-172" target="n1ISIKl0yZO8UXlDY4mg-282">
          <mxGeometry relative="1" as="geometry">
            <Array as="points">
              <mxPoint x="-209" y="325" />
              <mxPoint x="-209" y="638" />
              <mxPoint x="-30" y="638" />
            </Array>
          </mxGeometry>
        </mxCell>
        <mxCell id="n1ISIKl0yZO8UXlDY4mg-285" value="false" style="edgeLabel;html=1;align=center;verticalAlign=middle;resizable=0;points=[];" vertex="1" connectable="0" parent="n1ISIKl0yZO8UXlDY4mg-284">
          <mxGeometry x="-0.7546" relative="1" as="geometry">
            <mxPoint as="offset" />
          </mxGeometry>
        </mxCell>
        <mxCell id="n1ISIKl0yZO8UXlDY4mg-295" value="" style="edgeStyle=orthogonalEdgeStyle;rounded=0;orthogonalLoop=1;jettySize=auto;html=1;" edge="1" parent="1" source="n1ISIKl0yZO8UXlDY4mg-172" target="n1ISIKl0yZO8UXlDY4mg-294">
          <mxGeometry relative="1" as="geometry" />
        </mxCell>
        <mxCell id="n1ISIKl0yZO8UXlDY4mg-296" value="true" style="edgeLabel;html=1;align=center;verticalAlign=middle;resizable=0;points=[];" vertex="1" connectable="0" parent="n1ISIKl0yZO8UXlDY4mg-295">
          <mxGeometry x="-0.125" y="4" relative="1" as="geometry">
            <mxPoint as="offset" />
          </mxGeometry>
        </mxCell>
        <mxCell id="n1ISIKl0yZO8UXlDY4mg-172" value="i &amp;lt;= a * b" style="rhombus;whiteSpace=wrap;html=1;rounded=0;" vertex="1" parent="1">
          <mxGeometry x="-79.87" y="296" width="179.75" height="58" as="geometry" />
        </mxCell>
        <mxCell id="n1ISIKl0yZO8UXlDY4mg-216" value="" style="edgeStyle=orthogonalEdgeStyle;rounded=0;orthogonalLoop=1;jettySize=auto;html=1;" edge="1" parent="1" source="n1ISIKl0yZO8UXlDY4mg-214" target="n1ISIKl0yZO8UXlDY4mg-123">
          <mxGeometry relative="1" as="geometry" />
        </mxCell>
        <mxCell id="n1ISIKl0yZO8UXlDY4mg-214" value="a , b" style="shape=parallelogram;perimeter=parallelogramPerimeter;whiteSpace=wrap;html=1;fixedSize=1;" vertex="1" parent="1">
          <mxGeometry x="-50" y="95" width="120" height="60" as="geometry" />
        </mxCell>
        <mxCell id="n1ISIKl0yZO8UXlDY4mg-283" value="" style="edgeStyle=orthogonalEdgeStyle;rounded=0;orthogonalLoop=1;jettySize=auto;html=1;" edge="1" parent="1" source="n1ISIKl0yZO8UXlDY4mg-279" target="n1ISIKl0yZO8UXlDY4mg-282">
          <mxGeometry relative="1" as="geometry" />
        </mxCell>
        <mxCell id="n1ISIKl0yZO8UXlDY4mg-279" value="print i" style="shape=parallelogram;perimeter=parallelogramPerimeter;whiteSpace=wrap;html=1;fixedSize=1;rounded=0;" vertex="1" parent="1">
          <mxGeometry x="-49.995" y="515" width="120" height="60" as="geometry" />
        </mxCell>
        <mxCell id="n1ISIKl0yZO8UXlDY4mg-282" value="End" style="ellipse;whiteSpace=wrap;html=1;rounded=0;" vertex="1" parent="1">
          <mxGeometry x="-30" y="614" width="80" height="51" as="geometry" />
        </mxCell>
        <mxCell id="n1ISIKl0yZO8UXlDY4mg-297" value="" style="edgeStyle=orthogonalEdgeStyle;rounded=0;orthogonalLoop=1;jettySize=auto;html=1;" edge="1" parent="1" source="n1ISIKl0yZO8UXlDY4mg-294" target="n1ISIKl0yZO8UXlDY4mg-279">
          <mxGeometry relative="1" as="geometry" />
        </mxCell>
        <mxCell id="n1ISIKl0yZO8UXlDY4mg-298" value="true" style="edgeLabel;html=1;align=center;verticalAlign=middle;resizable=0;points=[];" vertex="1" connectable="0" parent="n1ISIKl0yZO8UXlDY4mg-297">
          <mxGeometry x="0.0115" relative="1" as="geometry">
            <mxPoint as="offset" />
          </mxGeometry>
        </mxCell>
        <mxCell id="n1ISIKl0yZO8UXlDY4mg-300" value="" style="edgeStyle=orthogonalEdgeStyle;rounded=0;orthogonalLoop=1;jettySize=auto;html=1;" edge="1" parent="1" source="n1ISIKl0yZO8UXlDY4mg-294" target="n1ISIKl0yZO8UXlDY4mg-299">
          <mxGeometry relative="1" as="geometry" />
        </mxCell>
        <mxCell id="n1ISIKl0yZO8UXlDY4mg-301" value="false" style="edgeLabel;html=1;align=center;verticalAlign=middle;resizable=0;points=[];" vertex="1" connectable="0" parent="n1ISIKl0yZO8UXlDY4mg-300">
          <mxGeometry x="-0.254" y="-3" relative="1" as="geometry">
            <mxPoint as="offset" />
          </mxGeometry>
        </mxCell>
        <mxCell id="n1ISIKl0yZO8UXlDY4mg-294" value="i % a === 0 &amp;amp;&amp;amp;&lt;br&gt;i % b === 0" style="rhombus;whiteSpace=wrap;html=1;rounded=0;" vertex="1" parent="1">
          <mxGeometry x="-79.87" y="412" width="179.75" height="58" as="geometry" />
        </mxCell>
        <mxCell id="n1ISIKl0yZO8UXlDY4mg-302" style="edgeStyle=orthogonalEdgeStyle;rounded=0;orthogonalLoop=1;jettySize=auto;html=1;exitX=0.5;exitY=0;exitDx=0;exitDy=0;entryX=1;entryY=0.5;entryDx=0;entryDy=0;" edge="1" parent="1" source="n1ISIKl0yZO8UXlDY4mg-299" target="n1ISIKl0yZO8UXlDY4mg-172">
          <mxGeometry relative="1" as="geometry" />
        </mxCell>
        <mxCell id="n1ISIKl0yZO8UXlDY4mg-299" value="i = i + 1" style="whiteSpace=wrap;html=1;rounded=0;" vertex="1" parent="1">
          <mxGeometry x="185.995" y="411" width="120" height="60" as="geometry" />
        </mxCell>
      </root>
    </mxGraphModel>
  </diagram>
</mxfile>
